<svg width="1024" height="1024" version="1.0" viewBox="0 0 768 768"
    xmlns="http://www.w3.org/2000/svg">
    <path fill="#f44336"
        d="M 557.149 397.618 L 593.814 397.618 C 616.659 397.618 634.723 381.143 634.723 360.953 C 634.723 345.016 624.628 335.981 606.031 335.449 L 552.899 335.449 L 542.804 335.981 C 521.019 336.514 515.173 339.169 506.139 354.578 L 499.764 365.739 L 373.839 579.866 L 373.839 477.321 C 373.839 427.905 371.179 402.401 364.273 382.21 C 354.177 353.518 318.048 331.734 279.789 331.734 C 202.215 331.734 135.267 398.148 135.267 475.195 C 135.267 529.392 177.243 571.899 229.846 571.899 C 268.101 571.899 295.199 554.897 295.199 530.453 C 295.199 517.169 281.915 504.947 267.568 505.48 L 245.254 506.013 C 222.938 506.541 205.402 489.538 205.402 468.286 C 205.402 431.625 237.814 396.554 271.821 396.554 C 285.104 396.554 296.792 405.588 301.574 419.937 C 305.294 430.032 305.827 437.469 306.888 477.321 L 311.141 652.128 C 311.669 669.131 313.263 676.572 318.048 684.541 C 323.891 694.104 337.174 701.011 350.456 701.011 C 370.118 701.011 382.341 691.982 397.217 666.477 L 557.149 397.618 Z M 557.149 397.618"></path>
    <g transform="matrix(15.094721, 0, 0, 15.094721, 34.741825, -100.788559)">
        <path fill="#e9940c"
            d="M40.331 16.802l.961 3.307-7.361 2.08s0 4.427-3.572 6.186c-3.572 1.761-6.347.269-6.347.269l-.445-1.279 5.3-1.441 1.174-4.535-3.416-3.358-4.906 1.484-.426-1.165s2.293-5.067 9.067-2.187c0 0 2.135 1.333 2.613 2.506l7.358-1.867zM41.292 16.553l1.173-.337.944 3.379-1.229.37zM41.706 16.405l.759-.189.944 3.379-1.229.37-.32-1.13.49-.191zM39.518 17.01l.812-.207.961 3.307-7.361 2.08s-.078 3.864-2.639 5.612c-2.559 1.748-5.441 1.694-7.28.844l-.205-.591s5.007 1.177 7.485-2.585c1.494-2.48 1.467-4.266 1.467-4.266l7.389-1.999-.629-2.195zM21.29 18.349l4.322-1.254 1.012.935-4.908 1.484zM6.058 20.695l.868 3.333 7.386-1.978s2.267 3.802 6.238 3.485c3.972-.317 5.589-3.016 5.589-3.016l-.273-1.33-5.288 1.476-3.328-3.295 1.214-4.635 4.975-1.233-.23-1.22s-4.562-3.181-8.909 2.76c0 0-1.15 2.238-.962 3.492l-7.28 2.161zM5.105 20.972l-1.18.311.917 3.384 1.246-.308zM4.674 21.055l-.749.228.917 3.384 1.246-.308-.301-1.137-.521.085zM6.863 20.457l-.805.238.868 3.333 7.386-1.978s2.047 3.276 5.142 3.468c3.093.192 5.541-1.325 6.685-3l-.123-.613s-3.701 3.572-7.755 1.611c-2.553-1.367-3.442-2.917-3.442-2.917l-7.373 2.062-.583-2.204zM23.21 12.281l-4.353 1.134-.393 1.319 4.976-1.233z"></path>
    </g>
</svg>